<svg width="24" height="24" viewBox="0 0 24 24" fill="none" xmlns="http://www.w3.org/2000/svg">
<path d="M18.5777 20.5341H14.6521C14.1243 20.5248 13.6218 20.3067 13.2545 19.9275C12.8873 19.5483 12.6853 19.0391 12.6929 18.5113V17.247C12.6932 16.7273 12.8997 16.2291 13.267 15.8615C13.6343 15.4939 14.1325 15.2871 14.6521 15.2863H18.5777C19.0973 15.2871 19.5955 15.4939 19.9628 15.8615C20.3301 16.2291 20.5366 16.7273 20.537 17.247V18.5113C20.5445 19.0391 20.3425 19.5483 19.9753 19.9275C19.608 20.3067 19.1055 20.5248 18.5777 20.5341ZM14.6521 16.552C14.5645 16.5545 14.4782 16.5746 14.3985 16.6112C14.3188 16.6478 14.2474 16.7001 14.1884 16.765C14.1294 16.8299 14.0842 16.9061 14.0554 16.9889C14.0266 17.0717 14.0148 17.1595 14.0207 17.247V18.5113C14.0148 18.5987 14.0266 18.6865 14.0554 18.7693C14.0842 18.8522 14.1294 18.9283 14.1884 18.9932C14.2474 19.0581 14.3188 19.1104 14.3985 19.147C14.4782 19.1836 14.5645 19.2038 14.6521 19.2063H18.5777C18.7611 19.2033 18.9362 19.1292 19.0659 18.9995C19.1956 18.8698 19.2698 18.6947 19.2727 18.5113V17.247C19.2698 17.0636 19.1956 16.8885 19.0659 16.7588C18.9362 16.6291 18.7611 16.5549 18.5777 16.552H14.6521ZM9.40576 20.5341H5.48583C5.2194 20.5369 4.95509 20.4865 4.70839 20.3859C4.46168 20.2852 4.23756 20.1363 4.04916 19.9479C3.86075 19.7595 3.71186 19.5354 3.61121 19.2887C3.51055 19.042 3.46017 18.7777 3.463 18.5113V14.5913C3.4723 14.0635 3.69042 13.561 4.06958 13.1937C4.44875 12.8265 4.95803 12.6245 5.48583 12.6321H9.40576C9.92528 12.6324 10.4234 12.839 10.7908 13.2063C11.1581 13.5737 11.3646 14.0718 11.365 14.5913V18.5113C11.3726 19.0391 11.1706 19.5483 10.8034 19.9275C10.4361 20.3067 9.93354 20.5248 9.40576 20.5341ZM5.48583 13.9599C5.39834 13.954 5.31056 13.9658 5.22774 13.9946C5.14493 14.0234 5.06878 14.0687 5.00388 14.1276C4.93898 14.1866 4.88666 14.2581 4.85005 14.3377C4.81344 14.4174 4.7933 14.5037 4.79084 14.5913V18.5113C4.79375 18.6947 4.86791 18.8698 4.99762 18.9995C5.12733 19.1292 5.30241 19.2033 5.48583 19.2063H9.40576C9.49342 19.2038 9.57967 19.1836 9.65935 19.147C9.73903 19.1104 9.8105 19.0581 9.86946 18.9932C9.92843 18.9283 9.97368 18.8522 10.0025 18.7693C10.0313 18.6865 10.0431 18.5987 10.0372 18.5113V14.5913C10.0421 14.5071 10.0292 14.4228 9.99918 14.344C9.96919 14.2651 9.92285 14.1935 9.8632 14.1339C9.80355 14.0742 9.73195 14.0279 9.65311 13.9979C9.57427 13.9679 9.48997 13.955 9.40576 13.9599H5.48583ZM18.572 13.9599H14.6521C14.1326 13.9595 13.6345 13.753 13.2671 13.3856C12.8998 13.0183 12.6932 12.5202 12.6929 12.0006V5.42504C12.6932 4.90553 12.8998 4.4074 13.2671 4.04005C13.6345 3.6727 14.1326 3.46616 14.6521 3.46578H18.5777C19.0972 3.46616 19.5953 3.6727 19.9627 4.04005C20.33 4.4074 20.5366 4.90553 20.537 5.42504V12.0006C20.5366 12.5202 20.33 13.0183 19.9627 13.3856C19.5953 13.753 19.0972 13.9595 18.5777 13.9599H18.572ZM14.6521 4.73005C14.5645 4.73251 14.4782 4.75265 14.3985 4.78926C14.3188 4.82587 14.2474 4.87819 14.1884 4.94309C14.1294 5.008 14.0842 5.08414 14.0554 5.16695C14.0266 5.24977 14.0148 5.33755 14.0207 5.42504V12.0006C14.0211 12.168 14.0877 12.3284 14.206 12.4467C14.3244 12.565 14.4848 12.6317 14.6521 12.6321H18.5777C18.7517 12.6334 18.9198 12.5692 19.0486 12.4522C19.1774 12.3352 19.2574 12.174 19.2727 12.0006V5.42504C19.2698 5.24163 19.1956 5.06654 19.0659 4.93683C18.9362 4.80712 18.7611 4.73296 18.5777 4.73005H14.6521ZM9.40576 11.3042H5.48583C4.95803 11.3118 4.44875 11.1098 4.06958 10.7426C3.69042 10.3753 3.4723 9.87275 3.463 9.34497V5.42504C3.4723 4.89726 3.69042 4.39469 4.06958 4.02744C4.44875 3.66019 4.95803 3.45822 5.48583 3.46578H9.40576C9.92528 3.46616 10.4234 3.6727 10.7908 4.04005C11.1581 4.4074 11.3646 4.90553 11.365 5.42504V9.34497C11.3643 9.86437 11.1576 10.3623 10.7903 10.7296C10.4231 11.0968 9.92516 11.3035 9.40576 11.3042ZM5.48583 4.73005C5.30241 4.73296 5.12733 4.80712 4.99762 4.93683C4.86791 5.06654 4.79375 5.24163 4.79084 5.42504V9.34497C4.7933 9.43263 4.81344 9.51888 4.85005 9.59856C4.88666 9.67824 4.93898 9.74971 5.00388 9.80867C5.06878 9.86764 5.14493 9.91289 5.22774 9.94171C5.31056 9.97053 5.39834 9.98233 5.48583 9.9764H9.40576C9.48997 9.98133 9.57427 9.96837 9.65311 9.93839C9.73195 9.9084 9.80355 9.86206 9.8632 9.80241C9.92285 9.74276 9.96919 9.67116 9.99918 9.59232C10.0292 9.51348 10.0421 9.42918 10.0372 9.34497V5.42504C10.0431 5.33755 10.0313 5.24977 10.0025 5.16695C9.97368 5.08414 9.92843 5.008 9.86946 4.94309C9.8105 4.87819 9.73903 4.82587 9.65935 4.78926C9.57967 4.75265 9.49342 4.73251 9.40576 4.73005H5.48583Z" fill="#1B1E27"/>
</svg>
