<svg width="24" height="24" viewBox="0 0 24 24" fill="none" xmlns="http://www.w3.org/2000/svg">
<path d="M4.5425 10.352C4.5425 10.0105 4.57027 9.67628 4.61084 9.3459H2.04956C1.65277 9.3459 1.33008 9.66274 1.33008 10.0533C1.33008 10.4439 1.65277 10.7606 2.04956 10.7606H4.55142C4.5455 10.626 4.5425 10.491 4.5425 10.352Z" fill="#1B1E27"/>
<path d="M6.31214 5.33684C6.61195 4.96519 6.94253 4.61981 7.30381 4.31072L5.51351 2.552C5.23249 2.27506 4.77624 2.27506 4.49412 2.552C4.21301 2.828 4.21301 3.27589 4.49412 3.55187L6.31214 5.33684Z" fill="#1B1E27"/>
<path d="M13.9696 21.832H10.3005C9.92141 21.832 9.6127 22.1342 9.6127 22.5064C9.6127 22.8804 9.92153 23.1827 10.3005 23.1827H13.9696C14.3487 23.1827 14.6574 22.8805 14.6574 22.5064C14.6574 22.1342 14.3486 21.832 13.9696 21.832Z" fill="#1B1E27"/>
<path d="M17.959 5.33584L19.775 3.55187C20.057 3.27586 20.057 2.82798 19.775 2.552C19.4949 2.27506 19.0377 2.27506 18.7556 2.552L16.9643 4.31072C17.3266 4.61964 17.6572 4.96471 17.959 5.33584Z" fill="#1B1E27"/>
<path d="M12.1347 3.06459H12.1556C12.3921 3.06459 12.6257 3.07914 12.8552 3.10247V0.707343C12.8552 0.316767 12.5326 0 12.1348 0C11.7369 0 11.4153 0.316743 11.4153 0.707343V3.10197C11.6449 3.07917 11.8784 3.06454 12.1149 3.06454L12.1347 3.06459Z" fill="#1B1E27"/>
<path d="M4.49422 16.5539C4.21311 16.8309 4.21301 17.2777 4.49412 17.5547C4.77619 17.8307 5.23244 17.8307 5.51351 17.5547L6.8328 16.2585C6.53496 15.9301 6.22514 15.5648 5.93219 15.1441L4.49422 16.5539Z" fill="#1B1E27"/>
<path d="M22.2194 9.34609L19.6592 9.34602C19.7007 9.67639 19.7275 10.0107 19.7275 10.3522C19.7275 10.4911 19.7245 10.6262 19.7196 10.7608H22.2194C22.6174 10.7608 22.9389 10.444 22.9389 10.0534C22.939 9.66286 22.6174 9.34609 22.2194 9.34609Z" fill="#1B1E27"/>
<path d="M18.3381 15.144C18.0452 15.5657 17.7354 15.93 17.4376 16.2594L18.7557 17.5547C19.0378 17.8307 19.495 17.8307 19.7752 17.5547C20.0572 17.2777 20.0572 16.8308 19.7752 16.5538L18.3381 15.144Z" fill="#1B1E27"/>
<path d="M18.7278 10.3519C18.7288 8.88515 18.2311 7.52883 17.3928 6.44247C16.6575 5.48831 15.6589 4.7401 14.502 4.3009L14.5079 4.26975L14.0141 4.12736C13.63 4.01806 13.2342 3.94222 12.8304 3.90143L12.773 3.89514H12.771L12.769 3.89466C12.5712 3.87622 12.3652 3.86205 12.1505 3.86205H12.1189C11.9041 3.86205 11.6982 3.87625 11.5003 3.89466L11.4973 3.89514L11.4379 3.90143C11.0347 3.94219 10.6388 4.01804 10.2557 4.12736L9.77775 4.26433L9.78269 4.29548C8.61988 4.73413 7.61534 5.48435 6.87601 6.44235C6.03879 7.52867 5.54096 8.88511 5.54096 10.3519C5.54096 11.4037 5.72605 12.2685 6.01404 12.9842C6.44649 14.0574 7.10662 14.7823 7.63709 15.3322C7.9023 15.6062 8.13591 15.8404 8.29419 16.0405C8.45651 16.2416 8.53466 16.3971 8.55737 16.5205C8.67312 17.121 8.68503 17.879 8.68503 18.0713V18.1267C8.68503 18.9953 9.40159 19.6969 10.2853 19.6979H13.9842C14.869 19.6969 15.5845 18.9944 15.5845 18.1267V18.0733C15.5835 17.8828 15.5964 17.123 15.7122 16.5215C15.728 16.4379 15.7656 16.3426 15.8398 16.2261C15.9665 16.023 16.2061 15.7703 16.5029 15.4662C16.9463 15.0085 17.5104 14.4314 17.9587 13.6108C18.4081 12.7912 18.7298 11.7326 18.7278 10.3519ZM17.2167 12.5808C16.8634 13.4558 16.3328 14.0479 15.8212 14.5784C15.5658 14.8437 15.3154 15.0905 15.0968 15.3636C14.8811 15.6328 14.6881 15.9408 14.6139 16.3187C14.4743 17.0562 14.4683 17.8472 14.4675 18.0736V18.127C14.4665 18.3894 14.2518 18.6011 13.9845 18.6011H12.6418V13.5707L14.4243 11.7881C14.6414 11.5713 14.6414 11.2193 14.4243 11.0021C14.2072 10.785 13.8554 10.785 13.6383 11.0021L12.086 12.5543L10.5335 11.0021C10.3164 10.785 9.96464 10.785 9.74754 11.0021C9.53043 11.2193 9.53043 11.5713 9.74754 11.7881L11.5301 13.5705V18.6012H10.2857C10.1502 18.6012 10.0324 18.5487 9.94333 18.4623C9.85532 18.3748 9.80281 18.2601 9.80281 18.1271V18.0717C9.80187 17.8435 9.79487 17.0544 9.65536 16.3189C9.6079 16.0692 9.50393 15.8456 9.37828 15.6474C9.15563 15.3005 8.87063 15.0149 8.57658 14.7088C8.13233 14.2541 7.66215 13.7629 7.29593 13.0928C6.93073 12.4223 6.65964 11.5703 6.65856 10.3523C6.65957 9.13041 7.07031 8.00909 7.76701 7.10495C8.46373 6.20179 9.44357 5.5196 10.5747 5.18739L10.7142 5.14567C10.9873 5.07668 11.2675 5.02181 11.5559 4.99208H11.5579L11.6113 4.98625C11.7806 4.97028 11.9447 4.96002 12.1071 4.95911L12.1358 4.96203L12.1645 4.96009C12.3258 4.96009 12.491 4.97079 12.6594 4.98632H12.6573L12.7128 4.99215C13.0007 5.02177 13.2818 5.07567 13.5539 5.14569L13.6954 5.18746C14.8266 5.5197 15.8063 6.20189 16.5031 7.10502C17.1987 8.00912 17.6104 9.13054 17.6104 10.3524C17.6106 11.2802 17.4523 11.9964 17.2167 12.5808Z" fill="#1B1E27"/>
<path d="M13.9696 20.1277H10.3005C9.92141 20.1277 9.6127 20.4289 9.6127 20.804C9.6127 21.1752 9.92153 21.4784 10.3005 21.4784H13.9696C14.3487 21.4784 14.6574 21.1752 14.6574 20.804C14.6574 20.4289 14.3486 20.1277 13.9696 20.1277Z" fill="#1B1E27"/>
</svg>
