<svg width="24" height="24" viewBox="0 0 24 24" fill="none" xmlns="http://www.w3.org/2000/svg">
<path d="M19.0701 3.51538H4.92941C4.55463 3.51594 4.19535 3.66508 3.93033 3.93009C3.66532 4.19511 3.51619 4.55438 3.51562 4.92917V19.0699C3.516 19.4448 3.66505 19.8043 3.93008 20.0694C4.19512 20.3346 4.5545 20.4838 4.92941 20.4844H19.0701C19.4452 20.484 19.8047 20.3349 20.0699 20.0697C20.3351 19.8045 20.4842 19.4449 20.4846 19.0699V4.92917C20.4841 4.55426 20.3348 4.19488 20.0697 3.92984C19.8045 3.66481 19.445 3.51576 19.0701 3.51538ZM16.3218 4.95182V9.05655L15.5615 8.29479C15.4199 8.1532 15.2323 8.08453 15.0468 8.08665C14.9513 8.08421 14.8564 8.10143 14.7678 8.13724C14.6793 8.17304 14.5991 8.22667 14.5321 8.29479L13.7718 9.05655V4.95253H16.3218V4.95182ZM19.0701 19.0947H4.92941V4.95182H12.358V10.7981C12.358 10.8045 12.358 10.8087 12.3601 10.813C12.3601 10.8201 12.3601 10.8243 12.3622 10.8307C12.3622 10.8378 12.3644 10.8449 12.3644 10.8512C12.3644 10.8555 12.3644 10.8597 12.3665 10.864C12.3665 10.871 12.3693 10.8795 12.3714 10.8859C12.3714 10.8909 12.3736 10.893 12.3736 10.8972C12.3757 10.9043 12.3757 10.9128 12.3778 10.9192C12.3778 10.9234 12.3799 10.9263 12.3799 10.9305C12.3821 10.9376 12.3842 10.9461 12.387 10.9525C12.3891 10.9567 12.3891 10.9617 12.3913 10.9638L12.3984 10.9836C12.3998 10.9879 12.3998 10.9921 12.4019 10.9964L12.409 11.0141C12.4111 11.019 12.4132 11.0254 12.416 11.0296L12.4217 11.0452L12.4288 11.0629L12.4359 11.0764C12.4373 11.0834 12.4422 11.0898 12.4444 11.0941L12.4507 11.1047L12.4621 11.1252C12.4642 11.1294 12.4663 11.1316 12.4684 11.1337L12.4819 11.1535C12.484 11.1556 12.4861 11.1606 12.489 11.1627C12.4925 11.1691 12.4975 11.1755 12.5017 11.1804C12.5038 11.1847 12.506 11.1868 12.5102 11.191C12.5152 11.1953 12.5194 11.2024 12.5237 11.2066C12.5279 11.2109 12.5329 11.2151 12.535 11.2201L12.5456 11.2328C12.5612 11.2505 12.5789 11.2661 12.5945 11.2824C12.5987 11.2859 12.6029 11.288 12.6079 11.293C12.6122 11.2972 12.6164 11.3015 12.6206 11.3036L12.6362 11.3171C12.6405 11.3192 12.6433 11.3241 12.6476 11.3263C12.6546 11.3305 12.661 11.3348 12.6652 11.339C12.6674 11.3411 12.6723 11.3433 12.6737 11.3461L12.6936 11.3588L12.7028 11.3659C12.7099 11.3702 12.7162 11.3723 12.7226 11.3765L12.7339 11.3836C12.7403 11.3857 12.7467 11.39 12.7509 11.3921L12.7651 11.3992L12.7821 11.4056C12.7863 11.4077 12.7934 11.4098 12.7976 11.4126C12.8019 11.414 12.809 11.4162 12.8132 11.419L12.8309 11.4254C12.8352 11.4275 12.8394 11.4275 12.8444 11.4296L12.8642 11.4367C12.8684 11.4388 12.8727 11.4388 12.8748 11.4409L12.8968 11.448L12.9081 11.4494C12.9151 11.4522 12.9225 11.4538 12.93 11.4544C12.935 11.4544 12.9392 11.4565 12.9414 11.4565C12.9484 11.4586 12.9569 11.4586 12.9633 11.4608L12.9767 11.4629C12.9838 11.4629 12.9902 11.465 12.9966 11.465C13.0037 11.465 13.0079 11.465 13.0143 11.4671C13.0185 11.4671 13.0249 11.4671 13.0298 11.4693H13.1006C13.107 11.4693 13.1113 11.4693 13.1155 11.4671C13.1226 11.4671 13.1268 11.4671 13.1332 11.465C13.1403 11.465 13.1474 11.4629 13.153 11.4629C13.158 11.4629 13.1622 11.4629 13.1672 11.4608C13.1744 11.4604 13.1816 11.4589 13.1884 11.4565C13.1934 11.4565 13.1976 11.4544 13.1998 11.4544C13.2068 11.4516 13.2153 11.4516 13.2217 11.4494C13.226 11.4494 13.2288 11.4473 13.233 11.4473L13.255 11.4402C13.2592 11.4388 13.2642 11.4388 13.2663 11.4367L13.2861 11.4296L13.2989 11.4254L13.3166 11.4183L13.3321 11.4119C13.3371 11.4098 13.3435 11.4077 13.3477 11.4048C13.354 11.4029 13.36 11.4 13.3654 11.3963L13.3789 11.39C13.3859 11.3879 13.3923 11.3829 13.3966 11.3815L13.4072 11.3744L13.427 11.3638L13.4362 11.3567L13.456 11.3433L13.4652 11.3369C13.4715 11.3329 13.4775 11.3284 13.4829 11.3234C13.4872 11.3213 13.4893 11.3192 13.4936 11.3149L13.5091 11.3015L13.5226 11.2909C13.5268 11.2859 13.5311 11.2838 13.5353 11.2795C13.5445 11.2703 13.553 11.264 13.5601 11.2555L15.0426 9.7723L16.525 11.2555L16.5491 11.2795L16.5633 11.2909C16.5668 11.2951 16.5718 11.2994 16.576 11.3015L16.5916 11.3149C16.5958 11.3171 16.5979 11.322 16.6022 11.3234C16.6093 11.3284 16.6156 11.3326 16.6199 11.3376L16.6291 11.3433L16.6489 11.3574C16.651 11.3588 16.656 11.361 16.6574 11.3638C16.6645 11.368 16.6709 11.3702 16.6772 11.3744C16.6822 11.3765 16.6843 11.3786 16.6886 11.3815C16.6956 11.3836 16.702 11.3879 16.7063 11.39L16.7197 11.3971L16.7374 11.4034C16.7417 11.4056 16.748 11.4077 16.7523 11.4105L16.7679 11.4162L16.7856 11.4233C16.7905 11.4254 16.7948 11.4254 16.799 11.4275L16.8188 11.4346C16.8231 11.4367 16.828 11.4367 16.8302 11.4388L16.8514 11.4452C16.8563 11.4452 16.8585 11.4473 16.8634 11.4473C16.8703 11.4497 16.8774 11.4511 16.8847 11.4516C16.8896 11.4516 16.8939 11.4544 16.896 11.4544C16.9031 11.4565 16.9116 11.4565 16.9186 11.4586L16.9314 11.4608C16.9385 11.4608 16.9448 11.4629 16.9512 11.4629C16.9583 11.4629 16.9625 11.4629 16.9689 11.465C16.9975 11.469 17.0265 11.4697 17.0553 11.4671C17.0624 11.4671 17.0666 11.4671 17.0709 11.465C17.0779 11.465 17.0822 11.465 17.0886 11.4629C17.0956 11.4629 17.102 11.4608 17.1084 11.4608C17.1126 11.4608 17.1169 11.4608 17.1218 11.4586C17.1291 11.4582 17.1362 11.4568 17.1431 11.4544C17.148 11.4544 17.1523 11.4516 17.1551 11.4516C17.1615 11.4494 17.17 11.4494 17.1763 11.4473C17.1813 11.4473 17.1834 11.4452 17.1877 11.4452L17.2103 11.4381C17.2146 11.4367 17.2188 11.4367 17.2209 11.4339L17.2408 11.4275C17.245 11.4254 17.25 11.4254 17.2542 11.4233L17.2719 11.4162L17.2875 11.4098L17.3031 11.4027C17.3094 11.4013 17.3137 11.3992 17.3208 11.3963L17.3335 11.39C17.3406 11.3879 17.347 11.3829 17.3512 11.3815L17.3625 11.3744L17.3824 11.3638C17.3845 11.361 17.3894 11.3588 17.3909 11.3567L17.4114 11.3433L17.4199 11.3369C17.4262 11.3329 17.4321 11.3284 17.4376 11.3234C17.4418 11.3213 17.4447 11.3192 17.4489 11.3149L17.4638 11.3015L17.4779 11.2909C17.4815 11.2859 17.4864 11.2838 17.4907 11.2795C17.5084 11.264 17.524 11.2463 17.5395 11.2307L17.5501 11.2179C17.5544 11.213 17.5593 11.2087 17.5615 11.2038C17.5657 11.2002 17.57 11.1932 17.5742 11.1889L17.5834 11.1776C17.5877 11.1712 17.5919 11.1648 17.5969 11.1599C17.599 11.1578 17.6011 11.1535 17.604 11.1514C17.6075 11.1443 17.6124 11.1379 17.6167 11.1316C17.6188 11.1294 17.6209 11.1245 17.6238 11.1224L17.6344 11.1025L17.6415 11.0919C17.6429 11.0848 17.6471 11.0785 17.65 11.0742L17.6563 11.0608C17.6583 11.0545 17.6611 11.0485 17.6648 11.0431C17.6677 11.0388 17.6698 11.0318 17.6719 11.0275L17.679 11.0119C17.6804 11.0056 17.6825 11.0013 17.6854 10.9942L17.6896 10.9815C17.6917 10.9744 17.6939 10.9673 17.6967 10.9617C17.6981 10.9567 17.6981 10.9525 17.7002 10.9503L17.7073 10.9284C17.7073 10.9234 17.7094 10.9213 17.7094 10.9171C17.7119 10.91 17.7133 10.9026 17.7137 10.8951C17.7137 10.8909 17.7158 10.8859 17.7158 10.8838C17.7179 10.8774 17.7179 10.8682 17.7201 10.8626C17.7201 10.8576 17.7229 10.8533 17.7229 10.8484C17.7229 10.842 17.725 10.8356 17.725 10.8286C17.725 10.8215 17.725 10.8179 17.7271 10.8109C17.7271 10.8066 17.7271 10.8002 17.7293 10.7953V4.95253H19.0616V19.0954H19.0701V19.0947ZM11.0476 9.87849C11.0477 9.97133 11.0295 10.0633 10.994 10.1491C10.9585 10.2349 10.9065 10.3129 10.8409 10.3785C10.7753 10.4442 10.6973 10.4963 10.6116 10.5319C10.5258 10.5674 10.4339 10.5857 10.341 10.5857H7.07027C6.88279 10.5857 6.70299 10.5113 6.57042 10.3787C6.43785 10.2461 6.36338 10.0663 6.36338 9.87884C6.36338 9.69136 6.43785 9.51156 6.57042 9.379C6.70299 9.24643 6.88279 9.17195 7.07027 9.17195H10.341C10.7318 9.17195 11.0476 9.4877 11.0476 9.87849ZM17.7555 13.1705C17.7556 13.2634 17.7375 13.3554 17.7021 13.4413C17.6667 13.5272 17.6146 13.6052 17.549 13.671C17.4834 13.7368 17.4054 13.7889 17.3196 13.8245C17.2338 13.8601 17.1418 13.8784 17.0489 13.8784H7.12832C6.94084 13.8784 6.76104 13.804 6.62848 13.6714C6.49591 13.5388 6.42143 13.359 6.42143 13.1715C6.42143 12.9841 6.49591 12.8043 6.62848 12.6717C6.76104 12.5391 6.94084 12.4647 7.12832 12.4647L17.051 12.4639C17.4404 12.4639 17.7555 12.7797 17.7555 13.1705ZM17.7356 16.1977C17.7357 16.2906 17.7175 16.3825 17.6821 16.4683C17.6466 16.5541 17.5946 16.6321 17.5289 16.6978C17.4633 16.7634 17.3854 16.8156 17.2996 16.8511C17.2139 16.8867 17.1219 16.905 17.0291 16.905H7.12832C6.94084 16.905 6.76104 16.8305 6.62848 16.6979C6.49591 16.5653 6.42143 16.3855 6.42143 16.1981C6.42143 16.0106 6.49591 15.8308 6.62848 15.6982C6.76104 15.5656 6.94084 15.4912 7.12832 15.4912H17.0312C17.4199 15.4912 17.7356 15.809 17.7356 16.1977Z" fill="#1B1E27"/>
</svg>
