<svg width="24" height="24" viewBox="0 0 24 24" fill="none" xmlns="http://www.w3.org/2000/svg">
<path d="M10.3067 16.1594V13.4367H7.58393C6.08037 13.4367 4.8613 14.6558 4.8613 16.1594C4.8613 17.6631 6.08037 18.882 7.58393 18.882C9.08761 18.882 10.3067 17.6631 10.3067 16.1594ZM11.668 16.1594C11.668 18.4149 9.83947 20.2433 7.58393 20.2433C5.32849 20.2433 3.5 18.4149 3.5 16.1594C3.5 13.9038 5.32849 12.0754 7.58393 12.0754H11.668V16.1594ZM13.9368 16.1594V13.4367H16.6594C18.1631 13.4367 19.382 14.6558 19.382 16.1594C19.382 17.6631 18.1631 18.882 16.6594 18.882C15.1558 18.882 13.9368 17.6631 13.9368 16.1594ZM12.5754 16.1594C12.5754 18.4149 14.4039 20.2433 16.6594 20.2433C18.9149 20.2433 20.7434 18.4149 20.7434 16.1594C20.7434 13.9038 18.9149 12.0754 16.6594 12.0754H12.5754V16.1594ZM10.3067 7.08393V9.80665H7.58393C6.08037 9.80665 4.8613 8.58758 4.8613 7.08393C4.8613 5.58035 6.08037 4.3613 7.58393 4.3613C9.08761 4.3613 10.3067 5.58035 10.3067 7.08393ZM11.668 7.08393C11.668 4.82849 9.83947 3 7.58393 3C5.32849 3 3.5 4.82849 3.5 7.08393C3.5 9.33947 5.32849 11.168 7.58393 11.168H11.668V7.08393ZM13.9368 7.08393V9.80665H16.6594C18.1631 9.80665 19.382 8.58758 19.382 7.08393C19.382 5.58035 18.1631 4.3613 16.6594 4.3613C15.1558 4.3613 13.9368 5.58035 13.9368 7.08393ZM12.5754 7.08393C12.5754 4.82849 14.4039 3 16.6594 3C18.9149 3 20.7434 4.82849 20.7434 7.08393C20.7434 9.33947 18.9149 11.168 16.6594 11.168H12.5754V7.08393Z" fill="#1B1E27"/>
</svg>
