<svg width="24" height="24" viewBox="0 0 24 24" fill="none" xmlns="http://www.w3.org/2000/svg">
<path d="M8.90224 1.80199H12.7624V9.52228H8.80692C8.30057 9.52175 7.79936 9.42081 7.33227 9.22531C6.86519 9.0298 6.44151 8.74361 6.08576 8.3833C5.72544 8.02754 5.43925 7.60387 5.24375 7.13678C5.04824 6.6697 4.94731 6.16848 4.94678 5.66213C4.96085 4.62618 5.38513 3.63807 6.12661 2.91446C6.86809 2.19085 7.86625 1.79079 8.90224 1.80199ZM11.3327 3.23167H8.90224C8.57679 3.22535 8.25329 3.28321 7.9502 3.40194C7.64712 3.52068 7.3704 3.69796 7.13585 3.92366C6.9013 4.14936 6.71351 4.41906 6.58321 4.71735C6.45291 5.01564 6.38266 5.33668 6.37646 5.66213C6.38485 6.30412 6.64361 6.91745 7.09761 7.37145C7.5516 7.82544 8.16493 8.0842 8.80692 8.09259H11.3327V3.23167Z" fill="#1B1E27"/>
<path d="M8.90224 8.18791H12.7624V15.9082H8.90224C8.39589 15.9077 7.89467 15.8067 7.42759 15.6112C6.9605 15.4157 6.53683 15.1295 6.18107 14.7692C5.82042 14.4136 5.53403 13.9899 5.33856 13.5227C5.14309 13.0555 5.04243 12.554 5.04243 12.0476C5.04243 11.5411 5.14309 11.0397 5.33856 10.5725C5.53403 10.1052 5.82042 9.68152 6.18107 9.32594C6.5369 8.96579 6.96062 8.67978 7.4277 8.48444C7.89478 8.2891 8.39595 8.18831 8.90224 8.18791ZM11.3327 9.61759H8.90224C8.26025 9.62598 7.64691 9.88474 7.19292 10.3387C6.73893 10.7927 6.48017 11.4061 6.47177 12.0481C6.48017 12.69 6.73893 13.3034 7.19292 13.7574C7.64691 14.2114 8.26025 14.4701 8.90224 14.4785H11.3327V9.61759Z" fill="#1B1E27"/>
<path d="M8.90224 14.4785L12.7624 14.4785V18.3387C12.7619 18.845 12.6609 19.3462 12.4654 19.8133C12.2699 20.2804 11.9837 20.7041 11.6234 21.0598C11.2678 21.4205 10.8441 21.7069 10.3769 21.9023C9.90965 22.0978 9.40823 22.1985 8.90176 22.1985C8.39529 22.1985 7.89387 22.0978 7.42665 21.9023C6.95942 21.7069 6.5357 21.4205 6.18012 21.0598C5.81946 20.7042 5.53308 20.2805 5.33761 19.8133C5.14214 19.3461 5.04147 18.8447 5.04147 18.3382C5.04147 17.8317 5.14214 17.3303 5.33761 16.8631C5.53308 16.3958 5.81946 15.9721 6.18012 15.6165C6.53606 15.2563 6.95993 14.9702 7.42718 14.7749C7.89444 14.5795 8.39579 14.4788 8.90224 14.4785ZM11.3327 15.9082L8.90224 15.9082C8.26025 15.9166 7.64691 16.1754 7.19292 16.6293C6.73893 17.0833 6.48017 17.6967 6.47177 18.3387C6.48017 18.9807 6.73893 19.594 7.19292 20.048C7.64691 20.502 8.26025 20.7607 8.90224 20.7691C9.54422 20.7607 10.1576 20.502 10.6116 20.048C11.0655 19.594 11.3243 18.9807 11.3327 18.3387V15.9082ZM11.3327 1.80199H15.1928C15.6992 1.80252 16.2004 1.90345 16.6675 2.09896C17.1346 2.29446 17.5583 2.58065 17.914 2.94097C18.2747 3.29655 18.561 3.72027 18.7565 4.1875C18.952 4.65472 19.0527 5.15614 19.0527 5.66261C19.0527 6.16908 18.952 6.6705 18.7565 7.13772C18.561 7.60495 18.2747 8.02867 17.914 8.38425C17.5582 8.74439 17.1345 9.03041 16.6674 9.22575C16.2003 9.42109 15.6991 9.52187 15.1928 9.52228H11.3327V1.80199ZM15.1928 8.09259C15.8348 8.0842 16.4482 7.82544 16.9022 7.37145C17.3562 6.91745 17.6149 6.30412 17.6233 5.66213C17.6149 5.02014 17.3562 4.40681 16.9022 3.95282C16.4482 3.49882 15.8348 3.24006 15.1928 3.23167H12.7624V8.09259H15.1928Z" fill="#1B1E27"/>
<path d="M15.1928 8.18791C15.6992 8.18844 16.2004 8.28937 16.6675 8.48488C17.1346 8.68038 17.5583 8.96657 17.914 9.32689C18.2747 9.68247 18.561 10.1062 18.7565 10.5734C18.952 11.0406 19.0527 11.5421 19.0527 12.0485C19.0527 12.555 18.952 13.0564 18.7565 13.5236C18.561 13.9909 18.2747 14.4146 17.914 14.7702C17.5584 15.1308 17.1347 15.4172 16.6675 15.6127C16.2003 15.8082 15.6988 15.9088 15.1924 15.9088C14.6859 15.9088 14.1845 15.8082 13.7173 15.6127C13.25 15.4172 12.8263 15.1308 12.4707 14.7702C12.1101 14.4146 11.8237 13.9909 11.6282 13.5236C11.4327 13.0564 11.3321 12.555 11.3321 12.0485C11.3321 11.5421 11.4327 11.0406 11.6282 10.5734C11.8237 10.1062 12.1101 9.68247 12.4707 9.32689C12.8266 8.96646 13.2504 8.6802 13.7177 8.48469C14.1849 8.28919 14.6863 8.18831 15.1928 8.18791ZM15.1928 14.4785C15.8348 14.4701 16.4482 14.2114 16.9022 13.7574C17.3562 13.3034 17.6149 12.69 17.6233 12.0481C17.6149 11.4061 17.3562 10.7927 16.9022 10.3387C16.4482 9.88474 15.8348 9.62598 15.1928 9.61759C14.5509 9.62598 13.9375 9.88474 13.4835 10.3387C13.0295 10.7927 12.7708 11.4061 12.7624 12.0481C12.7708 12.69 13.0295 13.3034 13.4835 13.7574C13.9375 14.2114 14.5509 14.4701 15.1928 14.4785Z" fill="#1B1E27"/>
</svg>
