<svg width="24" height="24" viewBox="0 0 24 24" fill="none" xmlns="http://www.w3.org/2000/svg">
<path d="M19.1618 9.65924C19.1618 8.19952 17.9758 7.0135 16.5161 7.0135H12.0457L10.4947 4.82391C10.3123 4.64145 10.1298 4.45898 9.85612 4.45898H5.65942C4.1997 4.45898 3.01367 5.64501 3.01367 7.10473V17.8702C3.01367 19.3299 4.1997 20.5159 5.65942 20.5159H17.0635C18.2495 20.5159 19.2531 19.6948 19.5268 18.6L20.8953 12.8524C20.9865 12.5787 20.9865 12.3962 20.9865 12.1225C20.9865 11.0277 20.2566 9.93294 19.1618 9.65924ZM4.47339 14.2209V7.10473C4.47339 6.4661 5.02079 5.91871 5.65942 5.91871H9.39995L11.0421 8.10829C11.2246 8.38199 11.4983 8.47322 11.772 8.47322H16.5161C17.1547 8.47322 17.7021 8.92938 17.7021 9.56801H7.66653C6.38928 9.56801 5.38572 10.4803 5.11202 11.6664L4.47339 14.2209ZM19.5268 12.5787L18.067 18.1439V18.2351C18.067 18.3263 18.067 18.3263 17.9758 18.4176C17.8846 18.5088 17.8846 18.6 17.7934 18.6913C17.6109 18.8737 17.246 18.965 16.9723 18.965H6.38928C5.75065 18.965 5.20325 18.4176 5.20325 17.7789V17.5052L6.57174 11.9401C6.66298 11.3927 7.21037 11.0277 7.75777 11.0277H18.432C19.0706 11.0277 19.618 11.5751 19.618 12.2138C19.618 12.305 19.618 12.3962 19.5268 12.5787Z" fill="#1B1E27"/>
</svg>
