<svg width="24" height="24" viewBox="0 0 24 24" fill="none" xmlns="http://www.w3.org/2000/svg">
<path d="M3.30762 10.3845C3.43179 7.34226 4.98395 4.9209 7.03279 4.9209H16.9666C19.1396 4.9209 20.6918 7.59061 20.6918 10.8191C20.6918 14.0476 19.1396 16.7173 16.9666 16.7173C16.5941 16.7173 16.3457 16.4689 16.3457 16.0964C16.3457 15.7239 16.5941 15.4756 16.9666 15.4756C18.2704 15.4756 19.45 13.4267 19.45 10.8191C19.45 8.21147 18.2704 6.16262 16.9666 6.16262C15.6628 6.16262 14.4831 8.21147 14.4831 10.8191V18.5799C14.4831 18.7661 14.4211 18.9524 14.2348 19.0766L11.7513 20.9392C11.5651 21.1254 11.2547 21.1254 11.0063 20.9392L9.51624 19.9458L7.96409 20.9392C7.77783 21.0633 7.4674 21.0633 7.28114 20.9392L5.79107 19.9458L4.23891 20.9392C3.80431 21.1875 3.30762 20.9392 3.30762 20.4425V10.3845ZM4.54934 10.8812V19.2628L5.48064 18.642C5.6669 18.5178 5.97733 18.5178 6.16358 18.642L7.65366 19.6353L9.20581 18.642C9.39207 18.5178 9.7025 18.5178 9.88876 18.642L11.3167 19.6353L13.1793 18.2074V10.3224C13.2414 8.64607 13.8002 7.09392 14.6073 6.10054H6.97071C5.66689 6.10054 4.48726 8.14938 4.48726 10.757C4.54934 10.8191 4.54934 10.8191 4.54934 10.8812Z" fill="#1B1E27"/>
<path d="M16.3458 11.0673C16.3458 11.3967 16.4112 11.7125 16.5276 11.9454C16.644 12.1783 16.802 12.3091 16.9666 12.3091C17.1313 12.3091 17.2892 12.1783 17.4056 11.9454C17.5221 11.7125 17.5875 11.3967 17.5875 11.0673C17.5875 10.738 17.5221 10.4222 17.4056 10.1893C17.2892 9.95645 17.1313 9.82562 16.9666 9.82562C16.802 9.82562 16.644 9.95645 16.5276 10.1893C16.4112 10.4222 16.3458 10.738 16.3458 11.0673Z" fill="#1B1E27"/>
</svg>
