<svg width="22" height="22" viewBox="0 0 22 22" fill="none" xmlns="http://www.w3.org/2000/svg">
<path d="M11.6931 10.3181H18.2931C18.4605 10.3393 18.6144 10.4209 18.7259 10.5474C18.8374 10.674 18.899 10.8369 18.899 11.0056C18.899 11.1743 18.8374 11.3372 18.7259 11.4638C18.6144 11.5904 18.4605 11.6719 18.2931 11.6931H11.6931V18.2931C11.6719 18.4605 11.5904 18.6144 11.4638 18.7259C11.3372 18.8374 11.1743 18.899 11.0056 18.899C10.8369 18.899 10.674 18.8374 10.5474 18.7259C10.4209 18.6144 10.3393 18.4605 10.3181 18.2931V11.6931H3.71812C3.62054 11.7055 3.52144 11.6969 3.42742 11.6681C3.3334 11.6392 3.2466 11.5906 3.17281 11.5255C3.09901 11.4605 3.0399 11.3805 2.99941 11.2909C2.95893 11.2012 2.93799 11.104 2.93799 11.0056C2.93799 10.9073 2.95893 10.81 2.99941 10.7204C3.0399 10.6307 3.09901 10.5507 3.17281 10.4857C3.2466 10.4207 3.3334 10.3721 3.42742 10.3432C3.52144 10.3143 3.62054 10.3058 3.71812 10.3181H10.3181V3.71812C10.3058 3.62054 10.3143 3.52144 10.3432 3.42742C10.3721 3.3334 10.4207 3.2466 10.4857 3.17281C10.5507 3.09901 10.6307 3.0399 10.7204 2.99941C10.81 2.95893 10.9073 2.93799 11.0056 2.93799C11.104 2.93799 11.2012 2.95893 11.2909 2.99941C11.3805 3.0399 11.4605 3.09901 11.5255 3.17281C11.5906 3.2466 11.6392 3.3334 11.6681 3.42742C11.6969 3.52144 11.7055 3.62054 11.6931 3.71812V10.3181Z" fill="#1B1E27"/>
</svg>
