<svg width="24" height="24" viewBox="0 0 24 24" fill="none" xmlns="http://www.w3.org/2000/svg">
<path d="M11.9998 19.8604C16.4016 19.8604 19.8602 16.297 19.8602 12C19.8602 7.70298 16.2968 4.13961 11.9998 4.13961C7.70274 4.13961 4.13936 7.70298 4.13936 12C4.13936 14.3057 4.9778 15.249 6.9691 15.8778C7.17871 15.9826 7.28352 15.9826 7.49313 16.0874C7.59793 16.0874 8.01716 16.1922 8.01716 16.297C9.27482 16.7162 9.90365 16.9258 10.4277 17.5547C10.8469 17.9739 11.1613 18.4979 11.4757 19.022C11.5805 19.2316 11.6853 19.4412 11.6853 19.546C11.895 19.546 11.895 19.7556 11.9998 19.8604ZM11.9998 20.9084C10.5325 20.9084 11.4757 19.8604 9.79885 18.1835C8.22677 16.6114 3.09131 17.5547 3.09131 12C3.09131 7.07415 7.07391 3.09155 11.9998 3.09155C16.9256 3.09155 20.9082 7.07415 20.9082 12C20.9082 16.9258 16.9256 20.9084 11.9998 20.9084ZM13.7814 18.2883C12.7334 18.2883 11.895 17.4499 11.895 16.4018C11.895 15.3538 12.7334 14.6201 13.7814 14.6201C14.8295 14.6201 15.6679 15.4586 15.6679 16.4018C15.6679 17.3451 14.8295 18.2883 13.7814 18.2883ZM13.7814 17.2403C14.2007 17.2403 14.6199 16.9258 14.6199 16.4018C14.6199 15.8778 14.3055 15.6682 13.7814 15.6682C13.2574 15.6682 12.943 15.9826 12.943 16.4018C12.943 16.821 13.3622 17.2403 13.7814 17.2403ZM14.6199 8.33182C13.9911 8.33182 13.5718 7.91259 13.5718 7.28376C13.5718 6.65493 13.9911 6.23571 14.6199 6.23571C15.2487 6.23571 15.6679 6.65493 15.6679 7.28376C15.6679 7.91259 15.2487 8.33182 14.6199 8.33182ZM11.6853 7.49337C11.0565 7.49337 10.6373 7.07415 10.6373 6.44532C10.6373 5.81649 11.0565 5.39727 11.6853 5.39727C12.3142 5.39727 12.7334 5.81649 12.7334 6.44532C12.7334 7.07415 12.3142 7.49337 11.6853 7.49337ZM16.716 10.4279C16.0872 10.4279 15.6679 10.0087 15.6679 9.37987C15.6679 8.75104 16.0872 8.33182 16.716 8.33182C17.3448 8.33182 17.764 8.75104 17.764 9.37987C17.764 10.0087 17.3448 10.4279 16.716 10.4279ZM8.8556 8.33182C8.22677 8.33182 7.80755 7.91259 7.80755 7.28376C7.80755 6.65493 8.22677 6.23571 8.8556 6.23571C9.48443 6.23571 9.90365 6.65493 9.90365 7.28376C9.90365 7.91259 9.48443 8.33182 8.8556 8.33182Z" fill="#1B1E27"/>
</svg>
